<svg width="600" height="600" viewBox="0 0 600 600" fill="none" xmlns="http://www.w3.org/2000/svg">
<rect width="600" height="600" rx="64" fill="white"/>
<path d="M239.96 324.799C214.878 353.937 165.535 422.015 145.75 454.637C126.307 443.33 116.158 436.02 107 429.018C137.036 396.157 182.894 347.822 220.516 318.719C220.516 318.719 237.67 324.013 239.96 324.799Z" fill="#F6BE00"/>
<path d="M492.724 376.755C492.724 360.427 489.58 345.226 484.215 332.383L483.737 331.05C483.6 330.777 483.6 330.845 483.429 330.401C474.681 314.142 463.849 304.646 450.078 295.628C424.313 277.865 388.023 266.524 344.558 257.096C263.47 239.71 251.954 231.682 251.954 213.168C251.954 194.654 272.628 180.307 304.919 180.991C330.001 181.571 345.002 187.549 351.905 190.009C371.895 165.175 393.354 141.332 416.18 118.753C382.283 106.456 345.241 100 305.261 100C208.796 100 141.479 148.198 141.479 220.683C141.479 276.362 170.627 301.64 221.542 318.924C224.241 319.812 232.271 322.306 236.782 323.775C254.414 328.864 274.063 333.373 295.625 337.985C375.141 355.03 381.804 369.377 381.804 385.192C381.804 403.706 359.661 414.876 322.62 414.876C280.248 414.876 241.088 402.34 200.082 375.798C179.067 404.253 157.403 435.542 145.75 454.603C197.383 482.716 257.558 500 320.706 500C391.646 500 444.611 478.924 471.743 442.067C484.489 426.832 492.69 403.228 492.69 376.687L492.724 376.755Z" fill="#004C99"/>
<path d="M434.086 127.737L416.454 118.924C389.732 145.055 368.034 169.547 351.905 190.008L365.676 196.088C390.757 172.895 416.249 151.716 442.083 132.246L434.086 127.702V127.737Z" fill="#F6BE00"/>
</svg>
